<svg xmlns="http://www.w3.org/2000/svg" xmlns:xlink="http://www.w3.org/1999/xlink" viewBox="0 0 536.73 125.67"><defs><style>.cls-1{fill:#d12027;}.cls-2,.cls-3{fill:#fff;}.cls-3{stroke:#fff;stroke-miterlimit:10;}.cls-4{fill:url(#linear-gradient);}</style><linearGradient id="linear-gradient" x1="428.87" y1="75.83" x2="499.09" y2="75.83" gradientUnits="userSpaceOnUse"><stop offset="0.05" stop-color="#5f308b"/><stop offset="0.2" stop-color="#ee3570"/><stop offset="0.34" stop-color="#f2612f"/><stop offset="0.48" stop-color="#fffaf1"/><stop offset="0.61" stop-color="#f8b723"/><stop offset="0.74" stop-color="#f8ed32"/><stop offset="0.86" stop-color="#7bb542"/><stop offset="1" stop-color="#27aee5"/></linearGradient></defs><g id="bckgrnd"><rect id="bckgrnd_red" class="cls-1" width="536.73" height="125.67"/></g><g id="text"><path id="text_white" class="cls-2" d="M354.69,30.76H367.4V98.21H354.69Zm4.59,0h40.59v9.87l-40.59.29Zm0,29.82H389.9V70.84H359.28Zm0,28.49,40.59-.44v9.58H359.28ZM293.1,30.76h15.55l13.66,43.08,14.85-43.08h10.77L329,98.21H312Zm-41.78,0h15.87V98.21H251.32ZM257,86H296.5V98.21H257Zm-53.27,9.86a21.49,21.49,0,0,1-8.65-8.72A27,27,0,0,1,192,74V54.93a27,27,0,0,1,3.06-13.06,21.55,21.55,0,0,1,8.65-8.72,28.64,28.64,0,0,1,25.84,0,21.49,21.49,0,0,1,8.65,8.72,27,27,0,0,1,3.06,13.06V74A27,27,0,0,1,238.2,87.1a21.43,21.43,0,0,1-8.65,8.72,28.64,28.64,0,0,1-25.84,0Zm18.95-11.09a10,10,0,0,0,4-4.15,13.16,13.16,0,0,0,1.41-6.21V54.61a13.21,13.21,0,0,0-1.41-6.22,10.05,10.05,0,0,0-4-4.15,13.18,13.18,0,0,0-12.06,0,10,10,0,0,0-4,4.15,13.21,13.21,0,0,0-1.41,6.22V74.37a13.16,13.16,0,0,0,1.41,6.21,9.91,9.91,0,0,0,4,4.15,13.18,13.18,0,0,0,12.06,0ZM151.42,98.5a40.71,40.71,0,0,1-8.68-2.85,33.22,33.22,0,0,1-7.26-4.53L140,83.94c2.59,2.14,6.45,3.53,9.85,4.69a32.73,32.73,0,0,0,11.13,2c5.71-.23,10.52-1,11.89-3.34,2.29-3.86.91-7.52-.11-8.57s-2.43-2.85-4.07-3.35-5.89-2.33-6-2.33-1.74-.87-1.74-.87c-4.52-.71-8.7-2.75-11.67-3.82a16.49,16.49,0,0,1-7.56-5.61q-3.1-4-3.11-11.39v0a20.51,20.51,0,0,1,2.93-11.18,18.39,18.39,0,0,1,8.48-7.08,33.59,33.59,0,0,1,13.46-2.43,34.12,34.12,0,0,1,7.4.83,40.38,40.38,0,0,1,7.39,2.41,41.46,41.46,0,0,1,6.87,3.81l-3.9,7.79A42.7,42.7,0,0,0,172,41.07a37.56,37.56,0,0,0-10-1.76c-3.9,0-5.39,1.2-7.53,2.48-1.26.76-3.24,7.78-3.17,8.33,0,0,.6-3.95.6-3.93,0,2,.59,5.23,1.7,6.36A18.68,18.68,0,0,0,159.27,56c1.64.53,6.09,2.28,6.26,2.33s8.12,2.78,11,4a16.7,16.7,0,0,1,7.17,5.75q2.88,4,2.87,10.84V79a19.66,19.66,0,0,1-3,11,18.86,18.86,0,0,1-8.79,7,35.94,35.94,0,0,1-13.89,2.41A45.47,45.47,0,0,1,151.42,98.5ZM84.92,30.76H97.63V98.21H84.92Zm4.59,0H130.1v9.87l-40.59.29Zm0,29.82h30.62V70.84H89.51Zm0,28.49,40.59-.44v9.58H89.51ZM25.46,30.72H42.9V98.21H25.46Zm5.06,28.11H54a6.1,6.1,0,0,0,3.43-1,6.29,6.29,0,0,0,2.3-2.78,10.83,10.83,0,0,0,.86-4.17,10,10,0,0,0-.82-4.18,6.27,6.27,0,0,0-2.29-2.78A6.2,6.2,0,0,0,54,43H30.52V30.72H55a18.84,18.84,0,0,1,9.79,2.5,17,17,0,0,1,6.54,7.08,23.18,23.18,0,0,1,2.32,10.6,23.17,23.17,0,0,1-2.32,10.59,16.92,16.92,0,0,1-6.57,7.08A18.83,18.83,0,0,1,55,71.07H30.52ZM45.11,68.92,58.3,66.85,76.49,98.21H60.8Z"/><rect id="text_addred" class="cls-1" x="36" y="42.96" width="10.69" height="56.51"/><path id="text_addwhite" class="cls-2" d="M43.09,98.21h-3V35.84h3Zm58.22-61.52H93.94V93.42h7.37Zm269.77.66h-7.37V94.08h7.37Z"/></g><g id="crown"><path id="crown_white" class="cls-3" d="M497.8,82.18l-.42,2.6c-.2.62-5,2.19-5,2.19l12.07,10.51-12.91,7.71C482.29,102.06,476,90.51,476,90.51a79.27,79.27,0,0,1-23.84.1c-8.95,13.33-15.72,14.58-15.72,14.58L424,97.27a44.13,44.13,0,0,0,11.66-10.51,21.86,21.86,0,0,1-5.21-1.88v-2.7C466.57,64.79,497.8,82.18,497.8,82.18ZM452.3,45.43l-3-9.16S432.21,23,420.14,35.43,422,62.08,422,62.08s7.39,10.83,7.6,15.93c0,0,31.23-20,68.61,0a47.93,47.93,0,0,1,8-15.93c6.15-8.12,9.68-18.32,1.46-27.06s-20.4-3.44-20.4-3.44-6.46,2.92-8.65,4.58l-2.39,9.27s29.36-8.85,18.74,7.18c0,0-7.7,11.66-7.91,15.1,0,0-12.18-4.06-16.45-3.23,0,0,1.77-21.14,6.87-32A21.34,21.34,0,0,1,472,34s-7.18,19.88-6.25,30h-3.22s.31-11.56-6-30a12.44,12.44,0,0,1-5.83-1.77s7.91,22,6.77,31.64c0,0-13.75,2.19-16.24,3.65,0,0-2.1-6.24-4.38-9.68C434.68,54.62,423.36,41,439.6,43,439.6,43,451.06,44.88,452.3,45.43Zm.11-22.07-1.35,4.79a32.66,32.66,0,0,0,26.23,0l-1.35-4.79S466.57,29,452.41,23.36Z"/><path id="crown_red" class="cls-1" d="M480.62,81.34c3.65,4.59,15.31,15.93,15.31,15.93l-4.79,2.4c-8.54-5.21-15.83-19-15.83-19C476.67,80.3,480.62,81.34,480.62,81.34Zm-33.1,0S434.4,95.5,432.42,96.86l4.27,2.81s4.48.21,16.14-19C452.83,80.62,449.6,80.93,447.52,81.34Zm12.28-2-4.37,6.45s12.28,1.15,17.07,0l-3.75-6.45A80.13,80.13,0,0,0,459.8,79.37ZM442.62,37.93s-9.89-6.62-18.63.63.52,18.63.52,18.63,7.91,10,7.91,13.43L436.48,69s-2.7-6.63-4.06-8.44C431.24,59,413.26,36.16,442.62,37.93Zm53.31,22.91c-.89,1.65-4.69,7.91-4.69,7.91l4.69,1.66c1.41-2.3,4.1-7.22,5-9,.14-.27.42-.45.54-.74,1.35-3.24,9.26-7.32,4.84-19.38-4.2-11.47-20.09-3.76-20.09-3.76C513.83,36.27,497.38,58.13,495.93,60.84Z"/><path id="crown_rainbow" class="cls-4" d="M428.87,76.55s.47,5.7,1.06,6.81c0,0,31.74-17.43,68.29,0,0,0,1.15-4.73.8-6.34C499,77,466.25,57.72,428.87,76.55Z"/><path id="crown_R" class="cls-2" d="M460.22,8.62h3V20.2h-3Zm.87,4.82h4a1.07,1.07,0,0,0,.59-.16,1,1,0,0,0,.39-.48,2,2,0,0,0,.15-.72,1.73,1.73,0,0,0-.14-.71,1,1,0,0,0-.39-.48,1.08,1.08,0,0,0-.6-.17h-4V8.62h4.2a3.18,3.18,0,0,1,1.68.43,2.93,2.93,0,0,1,1.13,1.21,4.06,4.06,0,0,1,.39,1.82,4,4,0,0,1-.39,1.82A2.9,2.9,0,0,1,467,15.12a3.3,3.3,0,0,1-1.68.43h-4.2Zm2.5,1.74,2.27-.36L469,20.2h-2.69Z"/><rect id="crown_R_addred" class="cls-1" x="462.03" y="10.72" width="1.83" height="9.7"/><rect id="crown_R_addwhite" class="cls-2" x="462.74" y="9.5" width="0.51" height="10.7"/></g></svg>